<?xml version="1.0" encoding="UTF-8"?>
<svg id="Layer_1" data-name="Layer 1" xmlns="http://www.w3.org/2000/svg" viewBox="0 0 52.28 55">
  <defs>
    <style>
      .cls-1 {
        fill: #929292;
      }
    </style>
  </defs>
  <path class="cls-1" d="M17.2,54.26H4.73C2.12,54.26,0,52.16,0,49.58V4.68C0,2.1,2.12,0,4.73,0h27.87l10.13,10.02v6.16c0,.93-.76,1.68-1.7,1.68s-1.7-.75-1.7-1.68v-4.76L31.18,3.37H4.73c-.73,0-1.32.59-1.32,1.31v44.9c0,.72.59,1.31,1.32,1.31h12.48c.94,0,1.7.75,1.7,1.68s-.76,1.68-1.7,1.68Z"/>
  <path class="cls-1" d="M41.21,13.7h-6.19c-3.28,0-5.95-2.64-5.95-5.89V.06h3.4v7.75c0,1.39,1.14,2.53,2.55,2.53h6.19v3.37Z"/>
  <path class="cls-1" d="M32.89,20.77H10.02c-.63,0-1.13-.5-1.13-1.12s.51-1.12,1.13-1.12h22.87c.63,0,1.13.5,1.13,1.12s-.51,1.12-1.13,1.12Z"/>
  <path class="cls-1" d="M28.73,29.93H10.02c-.63,0-1.13-.5-1.13-1.12s.51-1.12,1.13-1.12h18.71c.63,0,1.13.5,1.13,1.12s-.51,1.12-1.13,1.12Z"/>
  <path class="cls-1" d="M21.55,38.73h-11.53c-.63,0-1.13-.5-1.13-1.12s.51-1.12,1.13-1.12h11.53c.63,0,1.13.5,1.13,1.12s-.51,1.12-1.13,1.12Z"/>
  <path class="cls-1" d="M25.45,55c-.58,0-1.16-.19-1.64-.55-.76-.57-1.16-1.46-1.07-2.4l.54-5.98c.07-.83.4-1.6.94-2.23l17.46-20.38c1.29-1.51,3.6-1.71,5.13-.44l3.89,3.2c1.55,1.28,1.76,3.56.47,5.1l-16.6,19.74c-.53.63-1.22,1.12-2,1.42l-6.12,2.33c-.32.12-.65.18-.98.18ZM25.51,44.94l1.3,1.09c-.08.1-.14.22-.15.35l-.44,4.92,5.12-1.94c.23-.09.44-.24.61-.43l16.6-19.74c.09-.11.08-.27-.03-.36l-3.89-3.2c-.11-.09-.27-.07-.36.03l-17.46,20.38-1.3-1.09Z"/>
</svg>