<?xml version="1.0" encoding="UTF-8"?>
<svg id="Layer_1" data-name="Layer 1" xmlns="http://www.w3.org/2000/svg" viewBox="0 0 57 57">
  <defs>
    <style>
      .cls-1 {
        fill: #2b2b2b;
      }
    </style>
  </defs>
  <path class="cls-1" d="M15.43,57H0V0h57v15.43H15.43v41.57ZM3.29,53.71h8.86V12.15h41.57V3.29H3.29v50.42Z"/>
  <rect class="cls-1" x="6.07" y="-.87" width="3.29" height="17.18" transform="translate(-3.2 7.72) rotate(-45)"/>
  <rect class="cls-1" x="17.45" y="2.74" width="1.1" height="5.48"/>
  <rect class="cls-1" x="24.21" y="2.37" width="1.1" height="4.57"/>
  <rect class="cls-1" x="30.6" y="2.37" width="1.1" height="5.85"/>
  <rect class="cls-1" x="37.18" y="2.56" width="1.1" height="4.38"/>
  <rect class="cls-1" x="43.75" y="2.37" width="1.1" height="5.66"/>
  <rect class="cls-1" x="2.46" y="45.49" width="5.48" height="1.1"/>
  <rect class="cls-1" x="3.2" y="38.73" width="4.57" height="1.1"/>
  <rect class="cls-1" x="3.2" y="32.34" width="5.85" height="1.1"/>
  <rect class="cls-1" x="3.38" y="25.76" width="4.38" height="1.1"/>
  <rect class="cls-1" x="3.2" y="19.18" width="5.66" height="1.1"/>
  <g>
    <path class="cls-1" d="M47.5,54.23c-1.46,0-2.83-.57-3.86-1.6l-12.93-12.93c-7.56-7.37-9.15-14.22-9.21-14.51l-.48-2.18,2.23.19c7.11.59,14.78,8.38,15.11,8.71l13,13c1.03,1.03,1.6,2.4,1.6,3.86s-.57,2.83-1.6,3.86-2.4,1.6-3.86,1.6ZM25.67,27.11c1.08,2.43,3.25,6.26,7.36,10.26l12.94,12.94c.82.82,2.25.82,3.06,0,.41-.41.64-.95.64-1.53s-.23-1.12-.63-1.53l-13.02-13.02c-.07-.07-5.19-5.26-10.34-7.12Z"/>
    <rect class="cls-1" x="30.39" y="34.05" width="7.94" height="3.29" transform="translate(-15.17 34.75) rotate(-45)"/>
    <rect class="cls-1" x="41.59" y="45.65" width="7.3" height="3.29" transform="translate(-20.19 45.84) rotate(-45)"/>
  </g>
</svg>