<?xml version="1.0" encoding="UTF-8"?>
<svg id="Layer_1" data-name="Layer 1" xmlns="http://www.w3.org/2000/svg" viewBox="0 0 55.52 57.68">
  <defs>
    <style>
      .cls-1 {
        fill: #707070;
      }

      .cls-2 {
        fill: #fff;
      }
    </style>
  </defs>
  <g>
    <path class="cls-2" d="M6.12,49.15c-3.22-3.59-4.93-8.51-4.1-13.83,1.14-7.36,7.26-13.22,14.77-14.17,11.26-1.42,20.74,7.82,19.43,18.86-.88,7.37-6.73,13.42-14.18,14.67-3.91.66-7.61-.02-10.77-1.59l-5.57,2.62c-.64.3-1.34-.28-1.15-.95l1.56-5.61Z"/>
    <path class="cls-1" d="M5.35,57.37c-.56,0-1.1-.19-1.55-.57-.73-.61-1.02-1.55-.77-2.46l1.34-4.8C1.07,45.48-.36,40.26.45,35.07c1.25-8.08,7.89-14.45,16.15-15.49,5.89-.75,11.66,1.18,15.83,5.28,4.1,4.04,6.07,9.62,5.39,15.33-.96,8.08-7.33,14.68-15.49,16.04-3.78.63-7.58.15-11.03-1.4l-4.89,2.3c-.34.16-.69.24-1.05.24ZM19.07,22.59c-.69,0-1.38.04-2.08.13-6.85.86-12.36,6.14-13.4,12.84-.72,4.61.6,9.06,3.72,12.54l.58.64-1.34,4.82,4.76-2.24.69.35c3.03,1.51,6.41,2.01,9.79,1.45,6.78-1.14,12.06-6.6,12.86-13.3.56-4.74-1.07-9.37-4.47-12.72-2.97-2.92-6.94-4.52-11.11-4.52Z"/>
  </g>
  <g>
    <path class="cls-2" d="M49.27,30.8c3.26-3.68,5-8.73,4.16-14.18-1.16-7.55-7.36-13.55-14.99-14.52-11.42-1.46-21.04,8.02-19.71,19.33.89,7.55,6.83,13.76,14.38,15.04,3.97.67,7.72-.02,10.92-1.63l5.65,2.68c.65.31,1.36-.28,1.17-.97l-1.59-5.75Z"/>
    <path class="cls-1" d="M50.05,39.19c-.36,0-.72-.08-1.05-.24l-4.96-2.36c-3.5,1.59-7.36,2.09-11.19,1.44-8.27-1.4-14.72-8.15-15.7-16.42-.69-5.89,1.33-11.63,5.54-15.77C26.9,1.71,32.72-.23,38.65.53c8.36,1.07,15.09,7.59,16.36,15.85.82,5.31-.63,10.66-3.98,14.8l1.37,4.95c.25.92-.05,1.88-.79,2.49-.45.37-1,.57-1.55.57ZM44.01,33.07l4.87,2.31-1.38-4.99.57-.64c3.17-3.58,4.51-8.16,3.78-12.9-1.06-6.88-6.66-12.31-13.62-13.19-4.95-.63-9.8.98-13.31,4.43-3.51,3.45-5.2,8.24-4.62,13.15.81,6.88,6.18,12.5,13.07,13.67,3.42.58,6.86.07,9.93-1.48l.7-.35Z"/>
  </g>
  <path class="cls-1" d="M25.63,36.11h-13.09c-.59,0-1.06-.47-1.06-1.05s.48-1.05,1.06-1.05h13.09c.59,0,1.06.47,1.06,1.05s-.48,1.05-1.06,1.05Z"/>
  <path class="cls-1" d="M25.63,42.61h-13.09c-.59,0-1.06-.47-1.06-1.05s.48-1.05,1.06-1.05h13.09c.59,0,1.06.47,1.06,1.05s-.48,1.05-1.06,1.05Z"/>
  <path class="cls-1" d="M36.48,22.94c-.59,0-1.06-.47-1.06-1.05v-3.12c0-.54.28-1.05.74-1.35.65-.42,1.15-.83,1.54-1.26.52-.57.74-1.1.68-1.62-.07-.51-.38-1.03-.83-1.36-.64-.47-1.56-.56-2.3-.22-.8.36-1.27,1.19-1.25,2.23.01.58-.46,1.06-1.04,1.07-.59.03-1.07-.45-1.08-1.03-.03-1.88.92-3.49,2.5-4.19,1.45-.65,3.19-.47,4.44.45.91.67,1.53,1.71,1.67,2.78.15,1.14-.27,2.28-1.22,3.31-.47.51-1.03.98-1.73,1.45v2.85c0,.58-.48,1.05-1.06,1.05Z"/>
  <ellipse class="cls-1" cx="36.74" cy="26.01" rx="1.77" ry="1.76"/>
</svg>