<?xml version="1.0" encoding="UTF-8"?>
<svg id="Layer_1" data-name="Layer 1" xmlns="http://www.w3.org/2000/svg" viewBox="0 0 51 51">
  <defs>
    <style>
      .cls-1 {
        fill: #909090;
      }

      .cls-2 {
        fill: #fff;
      }

      .cls-3 {
        fill: #8c8c8c;
      }
    </style>
  </defs>
  <circle class="cls-3" cx="25.5" cy="25.58" r="25"/>
  <g>
    <path class="cls-2" d="M37.49,12.89H13.51c-3.06,0-5.53,2.49-5.53,5.56v13.18c0,3.07,2.47,5.55,5.53,5.55h8.26l2.82,4.59s.03.06.09.13c.17.28.47.48.82.48s.65-.19.82-.47c.07-.08.1-.14.1-.14l2.82-4.59h8.26c3.06,0,5.54-2.49,5.54-5.55v-13.18c0-3.07-2.48-5.56-5.54-5.56"/>
    <path class="cls-1" d="M15.76,22.55s-.96,0-1.83.85v-3.41h-2.14v8.94h2.17v-.7s.51.93,1.8.93c0,0,3.02-.11,3.02-3.34,0,0-.11-3.26-3.02-3.26M15.28,27.26c-.76,0-1.38-.62-1.38-1.38s.62-1.38,1.38-1.38,1.38.61,1.38,1.38-.62,1.38-1.38,1.38"/>
    <path class="cls-1" d="M19.47,19.78v2.07s.98-.04.98,1.78v5.29h2.07v-5.78s.09-3.36-3.05-3.36"/>
    <path class="cls-1" d="M27.58,22.58s-3.55,0-3.55,3.31c0,0-.11,3.27,3.55,3.27,0,0,3.63,0,3.63-3.27,0,0,.12-3.31-3.63-3.31M27.58,27.26c-.76,0-1.38-.62-1.38-1.38s.61-1.38,1.38-1.38,1.38.61,1.38,1.38-.62,1.38-1.38,1.38"/>
    <path class="cls-1" d="M37.12,22.79v.61s-.62-.82-1.8-.82c0,0-3.03-.13-3.03,3.29,0,0-.03,3.18,2.95,3.18,0,0,1.22.05,1.89-.82v.5s.15,1.57-1.37,1.57h-.52v1.9h.84s3.14.03,3.14-3.35v-6.06h-2.09ZM35.84,27.26c-.76,0-1.38-.62-1.38-1.38s.62-1.38,1.38-1.38,1.38.61,1.38,1.38-.62,1.38-1.38,1.38"/>
  </g>
</svg>