<?xml version="1.0" encoding="UTF-8"?>
<svg id="Layer_1" data-name="Layer 1" xmlns="http://www.w3.org/2000/svg" viewBox="0 0 88 55">
  <defs>
    <style>
      .cls-1 {
        fill: #2b2b2b;
      }

      .cls-2 {
        fill: #fff;
      }
    </style>
  </defs>
  <path class="cls-1" d="M58.11,47.34H16.05c-1.69,0-3.07-1.39-3.07-3.09V3.09c0-1.7,1.38-3.09,3.07-3.09h42.06c1.69,0,3.07,1.39,3.07,3.09v41.16c0,1.7-1.38,3.09-3.07,3.09ZM16.05,3.09v41.16h42.06V3.09H16.05Z"/>
  <path class="cls-1" d="M31.65,21.96h-12.29c-.56,0-1.02-.46-1.02-1.03s.46-1.03,1.02-1.03h12.29c.56,0,1.02.46,1.02,1.03s-.46,1.03-1.02,1.03Z"/>
  <path class="cls-1" d="M16.14,21.96h-6.45c-.56,0-1.02-.46-1.02-1.03s.46-1.03,1.02-1.03h6.45c.56,0,1.02.46,1.02,1.03s-.46,1.03-1.02,1.03Z"/>
  <path class="cls-1" d="M26.21,27.74H1.02C.46,27.74,0,27.28,0,26.71s.46-1.03,1.02-1.03h25.19c.56,0,1.02.46,1.02,1.03s-.46,1.03-1.02,1.03Z"/>
  <path class="cls-1" d="M83.82,47.54h-21.49c-2.22,0-4.02-1.82-4.02-4.05V14.46c0-2.23,1.8-4.05,4.02-4.05h9.81c1.07,0,2.08.42,2.84,1.19l11.85,11.94c.76.76,1.19,1.82,1.18,2.9l-.16,17.09c-.02,2.21-1.82,4.01-4.02,4.01ZM62.32,13.5c-.52,0-.95.43-.95.96v29.04c0,.53.43.96.95.96h21.49c.52,0,.95-.43.95-.95l.16-17.1c0-.26-.1-.51-.28-.69l-11.85-11.94c-.18-.18-.42-.28-.67-.28h-9.81Z"/>
  <g>
    <path class="cls-2" d="M67.32,47.27c0,3.42-2.75,6.19-6.14,6.19s-6.14-2.77-6.14-6.19,2.75-6.19,6.14-6.19,6.14,2.77,6.14,6.19Z"/>
    <path class="cls-1" d="M61.18,55c-4.23,0-7.67-3.47-7.67-7.73s3.44-7.73,7.67-7.73,7.67,3.47,7.67,7.73-3.44,7.73-7.67,7.73ZM61.18,42.63c-2.54,0-4.61,2.08-4.61,4.64s2.07,4.64,4.61,4.64,4.61-2.08,4.61-4.64-2.07-4.64-4.61-4.64Z"/>
  </g>
  <g>
    <path class="cls-2" d="M34.37,47.27c0,3.42-2.75,6.19-6.14,6.19s-6.14-2.77-6.14-6.19,2.75-6.19,6.14-6.19,6.14,2.77,6.14,6.19Z"/>
    <path class="cls-1" d="M28.23,55c-4.23,0-7.67-3.47-7.67-7.73s3.44-7.73,7.67-7.73,7.67,3.47,7.67,7.73-3.44,7.73-7.67,7.73ZM28.23,42.63c-2.54,0-4.61,2.08-4.61,4.64s2.07,4.64,4.61,4.64,4.61-2.08,4.61-4.64-2.07-4.64-4.61-4.64Z"/>
  </g>
  <path class="cls-1" d="M84.75,28.35h-18.55v-10.37c0-.57.46-1.03,1.02-1.03s1.02.46,1.02,1.03v8.31h16.51c.56,0,1.02.46,1.02,1.03s-.46,1.03-1.02,1.03Z"/>
</svg>