<?xml version="1.0" encoding="UTF-8"?>
<svg id="Layer_1" data-name="Layer 1" xmlns="http://www.w3.org/2000/svg" viewBox="0 0 92 92">
  <defs>
    <style>
      .cls-1 {
        fill: #e62363;
      }

      .cls-2 {
        fill: #fff;
      }
    </style>
  </defs>
  <circle class="cls-1" cx="46.41" cy="46" r="45"/>
  <g>
    <path class="cls-2" d="M26.99,43.63c0,4.69-2.39,7.62-5.6,7.62s-5.67-2.93-5.65-7.62c-.02-4.64,2.37-7.59,5.65-7.59s5.6,2.95,5.6,7.59ZM18.63,43.63c0,3.19,1.1,4.9,2.77,4.9s2.72-1.71,2.72-4.9-1.1-4.9-2.72-4.9-2.77,1.73-2.77,4.9ZM32.97,55.91h-3.02v-21.38h3.02v21.38Z"/>
    <path class="cls-2" d="M50.32,49.98h-2.81v-7.15h-1.92v4.12h-8.51v-10.78h2.84v3.26h2.91v-3.26h2.77v4.27h1.92v-5.58h2.81v15.12ZM42.82,44.54v-2.84h-2.91v2.84h2.91ZM55.2,55.49h-15v-6.96h3v4.57h12v2.39ZM54.66,50.66h-2.84v-16.12h2.84v16.12Z"/>
    <path class="cls-2" d="M77.08,53.38h-19.52v-2.44h19.52v2.44ZM74.94,47.92h-15.09v-11.81h14.93v2.41h-11.88v2.25h11.39v2.34h-11.39v2.44h12.05v2.37Z"/>
  </g>
</svg>