<?xml version="1.0" encoding="UTF-8"?>
<svg id="Layer_1" data-name="Layer 1" xmlns="http://www.w3.org/2000/svg" viewBox="0 0 59.37 53.66">
  <defs>
    <style>
      .cls-1 {
        fill: #2b2b2b;
      }

      .cls-2 {
        fill: #d4285f;
      }
    </style>
  </defs>
  <g>
    <path class="cls-1" d="M.17,53.34V11.14L19.88,1.8l16.49,7.8c.75.36,1.11,1.35.81,2.22-.31.87-1.17,1.29-1.92.93l-15.37-7.27L3.12,13.42v34.91l16.97-7.75,18.63,9.09,17.5-7.75v-24.98c0-.94.66-1.7,1.47-1.7s1.47.76,1.47,1.7v27.32l-20.5,9.08-18.61-9.08L.17,53.34Z"/>
    <path class="cls-1" d="M19.88,43.67c-.81,0-1.47-.76-1.47-1.7V3.64c0-.94.66-1.7,1.47-1.7s1.48.76,1.48,1.7v38.33c0,.94-.66,1.7-1.48,1.7Z"/>
    <path class="cls-1" d="M38.69,52.76c-.81,0-1.47-.76-1.47-1.7v-25.92c0-.94.66-1.7,1.47-1.7s1.47.76,1.47,1.7v25.92c0,.94-.66,1.7-1.47,1.7Z"/>
  </g>
  <path class="cls-2" d="M47.62.34c-4.08,0-7.39,3.82-7.39,8.53s7.39,15.8,7.39,15.8c0,0,7.39-11.09,7.39-15.8S51.7.34,47.62.34ZM47.62,12.66c-1.81,0-3.28-1.7-3.28-3.79s1.47-3.79,3.28-3.79,3.28,1.7,3.28,3.79-1.47,3.79-3.28,3.79Z"/>
</svg>