<?xml version="1.0" encoding="UTF-8"?>
<svg id="Layer_1" data-name="Layer 1" xmlns="http://www.w3.org/2000/svg" viewBox="0 0 92 92">
  <defs>
    <style>
      .cls-1 {
        fill: #a7a7a7;
      }

      .cls-2 {
        fill: #fff;
      }
    </style>
  </defs>
  <circle class="cls-1" cx="45.76" cy="46" r="45"/>
  <g>
    <path class="cls-2" d="M22.7,47.26h13.9v2.91h-5.2v14.06h-3.49v-14.06h-5.2v-2.91Z"/>
    <path class="cls-2" d="M45.65,64.46c-4.52,0-7.95-3.21-7.95-8.72s3.42-8.72,7.95-8.72,7.92,3.19,7.92,8.72-3.45,8.72-7.92,8.72ZM45.65,50.14c-2.62,0-4.36,1.97-4.36,5.6s1.73,5.6,4.36,5.6,4.34-1.97,4.34-5.6-1.71-5.6-4.34-5.6Z"/>
    <path class="cls-2" d="M56.1,47.26h6.66c3.87,0,6.07,2.37,6.07,5.72s-2.25,5.72-6.16,5.72h-3.05v5.53h-3.52v-16.97ZM62.1,55.86c2.09,0,3.09-1.17,3.09-2.88s-1.01-2.84-3.09-2.84h-2.48v5.72h2.48Z"/>
  </g>
  <path class="cls-2" d="M47,21.29l12.2,14.97h-3.79l-9.54-12h-.21l-9.54,12h-3.8l12.15-14.97h2.51Z"/>
</svg>