<?xml version="1.0" encoding="UTF-8"?>
<svg id="Layer_1" data-name="Layer 1" xmlns="http://www.w3.org/2000/svg" viewBox="0 0 26.12 26.07">
  <defs>
    <style>
      .cls-1 {
        fill: #909090;
      }

      .cls-2 {
        fill: #fff;
      }

      .cls-3 {
        fill: #8c8c8c;
      }
    </style>
  </defs>
  <circle class="cls-3" cx="13.06" cy="13.02" r="12.95" transform="translate(-3.75 5.44) rotate(-20.65)"/>
  <g>
    <path class="cls-2" d="M19.28,6.44H6.85c-1.59,0-2.87,1.29-2.87,2.88v6.83c0,1.59,1.28,2.88,2.87,2.88h4.28l1.46,2.38s.02.03.05.07c.09.15.24.25.43.25s.34-.1.42-.24c.04-.04.05-.07.05-.07l1.46-2.38h4.28c1.58,0,2.87-1.29,2.87-2.88v-6.83c0-1.59-1.29-2.88-2.87-2.88"/>
    <path class="cls-1" d="M8.02,11.45s-.5,0-.95.44v-1.76h-1.11v4.63h1.12v-.36s.27.48.93.48c0,0,1.57-.06,1.57-1.73,0,0-.06-1.69-1.57-1.69M7.77,13.89c-.39,0-.71-.32-.71-.71s.32-.71.71-.71.71.32.71.71-.32.71-.71.71"/>
    <path class="cls-1" d="M9.94,10.01v1.07s.51-.02.51.92v2.74h1.07v-3s.05-1.74-1.58-1.74"/>
    <path class="cls-1" d="M14.14,11.46s-1.84,0-1.84,1.71c0,0-.06,1.69,1.84,1.69,0,0,1.88,0,1.88-1.69,0,0,.06-1.71-1.88-1.71M14.14,13.89c-.4,0-.71-.32-.71-.71s.32-.71.71-.71.71.32.71.71-.32.71-.71.71"/>
    <path class="cls-1" d="M19.09,11.57v.32s-.32-.42-.93-.42c0,0-1.57-.07-1.57,1.7,0,0-.02,1.65,1.53,1.65,0,0,.63.02.98-.42v.26s.08.81-.71.81h-.27v.98h.43s1.62.02,1.62-1.74v-3.14h-1.08ZM18.42,13.89c-.39,0-.71-.32-.71-.71s.32-.71.71-.71.71.32.71.71-.32.71-.71.71"/>
  </g>
</svg>