<?xml version="1.0" encoding="UTF-8"?>
<svg id="Layer_1" data-name="Layer 1" xmlns="http://www.w3.org/2000/svg" viewBox="0 0 69.7 55.66">
  <defs>
    <style>
      .cls-1 {
        fill: #2b2b2b;
      }
    </style>
  </defs>
  <path class="cls-1" d="M12.46,41.73c-6.71,0-12.17-5.45-12.17-12.14s5.46-12.14,12.17-12.14c.64,0,1.27.05,1.91.15,1.59-4.96,6.23-8.41,11.57-8.41.75,0,1.5.07,2.23.2C31.04,3.85,36.75.34,43.08.34c9.26,0,16.79,7.52,16.79,16.76,0,.21,0,.43-.02.65,5.48,1.23,9.45,6.07,9.45,11.84s-4.52,11.21-10.52,12.02c-.87.12-1.66-.49-1.77-1.35-.12-.86.49-1.65,1.35-1.77,4.44-.6,7.79-4.43,7.79-8.9s-3.5-8.51-8.15-8.95l-1.63-.15.21-1.62c.09-.67.13-1.24.13-1.77,0-7.5-6.12-13.61-13.63-13.61-5.5,0-10.44,3.27-12.57,8.34l-.55,1.31-1.36-.42c-.86-.26-1.75-.4-2.65-.4-4.37,0-8.1,3.12-8.86,7.42l-.31,1.74-1.7-.51c-.85-.26-1.73-.39-2.61-.39-4.97,0-9.01,4.04-9.01,9s4.04,9,9.01,9c.87,0,1.58.7,1.58,1.57s-.71,1.57-1.58,1.57Z"/>
  <g>
    <path class="cls-1" d="M28.2,54.29c-.58,0-1.05-.47-1.05-1.05v-20.18c0-.58.47-1.05,1.05-1.05s1.05.47,1.05,1.05v20.18c0,.58-.47,1.05-1.05,1.05Z"/>
    <path class="cls-1" d="M28.28,55.34c-.6,0-1.19-.21-1.68-.62l-5.14-4.33c-.44-.37-.5-1.04-.13-1.48.37-.44,1.04-.5,1.48-.12l5.14,4.33c.19.16.47.16.66,0l4.96-4.31c.44-.38,1.1-.33,1.48.1.38.44.34,1.1-.1,1.48l-4.96,4.31c-.49.43-1.1.65-1.72.65Z"/>
  </g>
  <g>
    <path class="cls-1" d="M42.45,55.34c-.58,0-1.05-.47-1.05-1.05v-20.18c0-.58.47-1.05,1.05-1.05s1.05.47,1.05,1.05v20.18c0,.58-.47,1.05-1.05,1.05Z"/>
    <path class="cls-1" d="M48.51,38.81c-.24,0-.48-.08-.68-.25l-5.14-4.33c-.19-.16-.47-.16-.66,0l-4.96,4.31c-.44.38-1.1.34-1.48-.1-.38-.44-.34-1.1.1-1.48l4.96-4.31c.98-.85,2.41-.86,3.4-.03l5.14,4.33c.44.37.5,1.04.13,1.48-.21.25-.5.37-.8.37Z"/>
  </g>
</svg>