<?xml version="1.0" encoding="UTF-8"?>
<svg id="Layer_1" data-name="Layer 1" xmlns="http://www.w3.org/2000/svg" viewBox="0 0 92 92">
  <defs>
    <style>
      .cls-1 {
        fill: #ffe815;
      }

      .cls-2 {
        fill: #ffe716;
      }
    </style>
  </defs>
  <circle class="cls-2" cx="45.77" cy="46" r="45"/>
  <g>
    <path d="M33.77,70.18h-4.69v2.15h-1.72v-2.15h-4.98v-1.38h11.39v1.38ZM32.52,74.87h-8.79v-3.62h1.74v2.23h7.05v1.39ZM32.31,67.77h-8.5v-4.58h8.5v4.58ZM25.52,66.42h5.09v-1.87h-5.09v1.87Z"/>
    <path d="M42.51,70.75l.14,1.26c-2.76.53-5.71.56-7.89.56l-.21-1.42c2.21.01,5.29-.03,7.96-.4ZM41.98,66.53c0,1.79-1.48,3.06-3.45,3.06s-3.46-1.27-3.46-3.06,1.49-3.06,3.46-3.05c1.97-.01,3.45,1.27,3.45,3.05ZM36.81,66.53c-.01.98.74,1.54,1.72,1.54s1.74-.56,1.75-1.54c-.01-.97-.75-1.54-1.75-1.54s-1.74.57-1.72,1.54ZM44.96,75.11h-1.74v-12.47h1.74v12.47Z"/>
    <path d="M53.84,65.9h-7.31v-1.39h2.82v-1.67h1.75v1.67h2.75v1.39ZM53.39,69.56c0,1.74-1.35,2.97-3.17,2.97s-3.19-1.23-3.19-2.97,1.35-2.97,3.19-2.97,3.17,1.23,3.17,2.97ZM48.7,69.56c0,.97.64,1.55,1.52,1.53.87.01,1.5-.56,1.5-1.53s-.63-1.54-1.5-1.56c-.87.01-1.52.6-1.52,1.56ZM56.41,67.51h1.83v1.44h-1.83v6.14h-1.72v-12.44h1.72v4.87Z"/>
    <path d="M59.65,72.95l-.92-1.39c3.21-1.52,4.63-3.49,4.91-6.25h-4.24v-1.37h6.02c0,3.77-1.33,6.9-5.77,9.01ZM69.16,75.08h-1.76v-12.44h1.76v12.44Z"/>
  </g>
  <g>
    <path d="M44.96,12.81c-13.51,0-24.46,8.42-24.46,18.81,0,6.89,4.83,12.9,12.01,16.18l-1.74,7.84c-.08.38.34.66.66.44l8.61-6.03c1.59.25,3.24.38,4.92.38,13.51,0,24.46-8.42,24.46-18.81s-10.95-18.81-24.46-18.81Z"/>
    <g>
      <path class="cls-1" d="M36.77,27.72v-.98c0-.26-.21-.46-.46-.46h-8.19c-.26,0-.46.21-.46.46v.98c0,.26.21.46.46.46h2.63c.18,0,.32.14.32.32v8.57c0,.18.14.32.32.32h1.64c.18,0,.32-.14.32-.32v-8.57c0-.18.14-.32.32-.32h2.63c.26,0,.46-.21.46-.46Z"/>
      <path class="cls-1" d="M41.92,26.5c-.04-.13-.17-.22-.31-.22h-2.5c-.14,0-.26.09-.31.22l-3.57,10.29c-.1.3.12.61.44.61h1.61c.14,0,.26-.09.31-.22l.7-2.12c.04-.13.17-.22.31-.22h3.56c.14,0,.26.09.31.22l.68,2.12c.04.13.17.22.31.22h1.59c.32,0,.54-.31.44-.61l-3.55-10.29ZM41.35,33.04h-1.97c-.22,0-.38-.21-.31-.42l1.25-3.83h.08l1.26,3.83c.07.21-.09.42-.31.42Z"/>
      <path class="cls-1" d="M52.84,35.5h-4.01c-.18,0-.32-.14-.32-.32v-8.57c0-.18-.14-.32-.32-.32h-1.66c-.18,0-.32.14-.32.32v10.48c0,.18.14.32.32.32h6.31c.26,0,.46-.21.46-.46v-.98c0-.26-.21-.46-.46-.46Z"/>
      <path class="cls-1" d="M63.05,26.28h-2.31c-.1,0-.19.04-.25.12l-3.94,4.81h-.15v-4.61c0-.18-.14-.32-.32-.32h-1.66c-.18,0-.32.14-.32.32v10.48c0,.18.14.32.32.32h1.66c.18,0,.32-.14.32-.32v-2.74c0-.08.03-.15.07-.21l1.09-1.32,2.99,4.45c.06.09.16.14.27.14h1.72c.37,0,.59-.42.38-.72l-3.56-5.22c-.08-.12-.07-.28.02-.39l.17-.2.44-.53.62-.75c.24-.29.48-.57.71-.86.24-.28.47-.57.71-.85.2-.25.41-.49.61-.74.14-.17.28-.34.43-.51.03-.03.05-.06.08-.1.01-.02.03-.03.04-.05.05-.05.02-.11-.03-.16-.03-.03-.07-.05-.11-.05Z"/>
    </g>
  </g>
</svg>