<?xml version="1.0" encoding="UTF-8"?>
<svg id="Layer_1" data-name="Layer 1" xmlns="http://www.w3.org/2000/svg" viewBox="0 0 97 27">
  <defs>
    <style>
      .cls-1 {
        fill: #303030;
      }

      .cls-2 {
        fill: #fff;
      }
    </style>
  </defs>
  <rect class="cls-1" x=".72" y=".51" width="96" height="26" rx="8" ry="8"/>
  <g>
    <path class="cls-2" d="M24.92,19.2h-13.71v-1.53h13.71v1.53ZM14.56,9.65h6.96v-2.57h1.84v7.92h-10.64v-7.92h1.84v2.57ZM21.52,13.55v-2.46h-6.96v2.46h6.96Z"/>
    <path class="cls-2" d="M32.65,11.86h-3.9v1.78c1.74-.02,3.07-.11,4.6-.4l.17,1.48c-1.81.32-3.34.38-5.53.38h-1.03v-4.63h3.92v-1.69h-3.93v-1.46h5.71v4.55ZM39.57,20.77h-10.46v-4.6h1.84v3.1h8.62v1.49ZM39.16,17.22h-1.76v-5.3h-1.56v4.95h-1.73V6.36h1.73v4.05h1.56v-4.33h1.76v11.14Z"/>
    <path class="cls-2" d="M55.16,19.16h-13.71v-1.53h13.71v1.53ZM53.63,14.58h-10.53v-7.21h10.41v1.49h-8.58v4.23h8.7v1.48Z"/>
    <path class="cls-2" d="M70.24,13.83h-13.68v-1.49h5.89v-1.13h-4.17v-4.68h10.19v4.68h-4.2v1.13h5.96v1.49ZM68.53,18.43h-8.53v1.1h8.95v1.41h-10.76v-3.83h8.53v-.96h-8.55v-1.39h10.36v3.69ZM60.1,9.77h6.54v-1.79h-6.54v1.79Z"/>
  </g>
  <path class="cls-2" d="M75.2,10.42h2.32l4.11,5.74h.15l4.13-5.74h2.32l-5.78,7.59h-1.49l-5.75-7.59Z"/>
</svg>