<?xml version="1.0" encoding="UTF-8"?>
<svg id="Layer_1" data-name="Layer 1" xmlns="http://www.w3.org/2000/svg" viewBox="0 0 26.12 26.07">
  <defs>
    <style>
      .cls-1 {
        fill: #fffeff;
      }
    </style>
  </defs>
  <path class="cls-1" d="M19.6,3.3V.52c0-.25-.2-.46-.46-.46h-5.35c-2.29,0-4.15,1.86-4.15,4.15v3.91c0,.25-.2.46-.46.46h-1.32c-.25,0-.46.2-.46.46v3.52c0,.25.2.46.46.46h1.32c.25,0,.46.2.46.46v12.04c0,.25.2.46.46.46h4.98c.25,0,.46-.2.46-.46v-12.04c0-.25.2-.46.46-.46h3.15c.25,0,.46-.2.46-.46v-3.52c0-.25-.2-.46-.46-.46h-3.15c-.25,0-.46-.2-.46-.46v-3.91c0-.25.2-.46.46-.46h3.15c.25,0,.46-.2.46-.46Z"/>
</svg>